HIERARCHY
ROOT Hips
{
	OFFSET 0.000000 0.000000 0.000000
	CHANNELS 6 Xposition Yposition Zposition Xrotation Yrotation Zrotation
	JOINT LeftUpLeg_virtual
	{
		OFFSET 0.000000 0.000000 0.000000
		CHANNELS 3 Xrotation Yrotation Zrotation
		JOINT LeftUpLeg
		{
			OFFSET 11.394100 -6.187798 -0.413800
			CHANNELS 3 Xrotation Yrotation Zrotation
			JOINT LeftLeg
			{
				OFFSET 0.430247 -32.302673 3.732800
				CHANNELS 3 Xrotation Yrotation Zrotation
				JOINT LeftFoot
				{
					OFFSET -0.430247 -48.264931 -6.423300
					CHANNELS 3 Xrotation Yrotation Zrotation
					JOINT LeftToeBase
					{
						OFFSET 4.230900 -16.068199 23.438400
						CHANNELS 3 Xrotation Yrotation Zrotation
						JOINT LeftToe_End
						{
							OFFSET 4.510700 0.695400 19.974600
							CHANNELS 3 Xrotation Yrotation Zrotation
							End Site
							{
								OFFSET 0 0 0
							}
						}
					}
				}
			}
		}
	}
	JOINT RightUpLeg_virtual
	{
		OFFSET 0.000000 0.000000 0.000000
		CHANNELS 3 Xrotation Yrotation Zrotation
		JOINT RightUpLeg
		{
			OFFSET -11.333700 -6.187798 -0.413800
			CHANNELS 3 Xrotation Yrotation Zrotation
			JOINT RightLeg
			{
				OFFSET -0.430392 -32.302628 3.733000
				CHANNELS 3 Xrotation Yrotation Zrotation
				JOINT RightFoot
				{
					OFFSET 0.430392 -48.264973 -6.423500
					CHANNELS 3 Xrotation Yrotation Zrotation
					JOINT RightToeBase
					{
						OFFSET -4.230900 -16.068199 23.438400
						CHANNELS 3 Xrotation Yrotation Zrotation
						JOINT RightToe_End
						{
							OFFSET -4.510700 0.695400 19.974600
							CHANNELS 3 Xrotation Yrotation Zrotation
							End Site
							{
								OFFSET 0 0 0
							}
						}
					}
				}
			}
		}
	}
	JOINT Spine_virtual
	{
		OFFSET 0.000000 0.000000 0.000000
		CHANNELS 3 Xrotation Yrotation Zrotation
		JOINT Spine
		{
			OFFSET -0.002400 12.777504 0.315300
			CHANNELS 3 Xrotation Yrotation Zrotation
			JOINT Spine1
			{
				OFFSET -0.002067 5.816869 0.032633
				CHANNELS 3 Xrotation Yrotation Zrotation
				JOINT Spine1_split
				{
					OFFSET -0.002067 5.816869 0.032633
					CHANNELS 3 Xrotation Yrotation Zrotation
					JOINT Spine2
					{
						OFFSET -0.002067 5.816869 0.032633
						CHANNELS 3 Xrotation Yrotation Zrotation
						JOINT Neck_virtual
						{
							OFFSET 0.000000 0.000000 0.000000
							CHANNELS 3 Xrotation Yrotation Zrotation
							JOINT Neck
							{
								OFFSET -0.003700 21.199493 -0.826900
								CHANNELS 3 Xrotation Yrotation Zrotation
								JOINT Head
								{
									OFFSET 0.000000 20.442200 4.834800
									CHANNELS 3 Xrotation Yrotation Zrotation
									JOINT HeadTop_End
									{
										OFFSET 0.000000 34.668396 4.968400
										CHANNELS 3 Xrotation Yrotation Zrotation
										End Site
										{
											OFFSET 0 0 0
										}
									}
								}
							}
						}
						JOINT LeftShoulder_virtual
						{
							OFFSET 0.000000 0.000000 0.000000
							CHANNELS 3 Xrotation Yrotation Zrotation
							JOINT LeftShoulder
							{
								OFFSET 3.288150 8.794197 -1.372250
								CHANNELS 3 Xrotation Yrotation Zrotation
								JOINT LeftShoulder_split
								{
									OFFSET 3.288150 8.794197 -1.372250
									CHANNELS 3 Xrotation Yrotation Zrotation
									JOINT LeftArm
									{
										OFFSET 11.953299 -2.279007 -0.146200
										CHANNELS 3 Xrotation Yrotation Zrotation
										JOINT LeftForeArm
										{
											OFFSET 18.448900 0.000000 0.000000
											CHANNELS 3 Xrotation Yrotation Zrotation
											JOINT LeftHand
											{
												OFFSET 29.527798 0.000000 0.000000
												CHANNELS 3 Xrotation Yrotation Zrotation
												End Site
												{
													OFFSET 0 0 0
												}
											}
										}
									}
								}
							}
						}
						JOINT RightShoulder_virtual
						{
							OFFSET 0.000000 0.000000 0.000000
							CHANNELS 3 Xrotation Yrotation Zrotation
							JOINT RightShoulder
							{
								OFFSET -3.249400 8.794197 -1.372250
								CHANNELS 3 Xrotation Yrotation Zrotation
								JOINT RightShoulder_split
								{
									OFFSET -3.249400 8.794197 -1.372250
									CHANNELS 3 Xrotation Yrotation Zrotation
									JOINT RightArm
									{
										OFFSET -11.953299 -2.279007 -0.146200
										CHANNELS 3 Xrotation Yrotation Zrotation
										JOINT RightForeArm
										{
											OFFSET -18.448900 0.000000 0.000000
											CHANNELS 3 Xrotation Yrotation Zrotation
											JOINT RightHand
											{
												OFFSET -29.527802 0.000000 0.000000
												CHANNELS 3 Xrotation Yrotation Zrotation
												End Site
												{
													OFFSET 0 0 0
												}
											}
										}
									}
								}
							}
						}
					}
				}
			}
		}
	}
}
MOTION
Frames: 10
Frame Time: 0.03333333
2.092863 71.693405 -48.478489 0.000000 0.000000 0.000000 32.858377 -78.609986 29.689425 -54.822872 -9.261329 25.958878 78.107530 13.190548 0.718714 -14.285963 3.623047 -32.402223 -6.115231 -4.073343 6.233162 0.000000 0.000000 0.000000 34.325403 -77.875870 31.815253 -58.437575 0.630785 -9.523846 85.715678 12.184029 -7.803221 -31.391959 -1.377346 0.044864 -1.604009 1.760727 1.709500 0.000000 0.000000 0.000000 48.932032 -83.091068 46.968858 4.997553 10.575914 -4.544933 10.014271 18.870027 -6.234693 0.635320 -5.648421 1.931786 0.000000 0.000000 0.000000 12.430440 18.255388 -7.780865 -1.060547 1.876577 3.213524 4.550759 2.479742 -6.373266 0.000000 0.000000 0.000000 10.177450 18.539584 -7.044187 4.404053 -4.215784 0.110532 2.288969 3.196099 0.296720 -75.598166 -30.488226 -61.536241 55.507168 -75.768053 54.492960 0.000000 0.000000 0.000000 9.270873 18.625689 -6.586666 5.415498 7.998402 -2.377053 -2.140310 6.669860 -3.321079 -48.214357 -4.598065 29.364325 -15.521586 43.868977 1.819982 0.000000 0.000000 0.000000 
2.881693 70.744202 -49.163464 0.000000 0.000000 0.000000 42.262752 -74.754016 38.552214 -61.104313 -10.151208 25.758817 79.431562 12.353294 0.350808 -14.310268 2.038419 -31.396699 -6.327521 -4.492424 6.927686 0.000000 0.000000 0.000000 40.433801 -74.511012 38.069849 -63.129820 0.390883 -10.114432 86.091932 10.984915 -6.156676 -34.642907 -1.647045 -0.850511 2.063461 1.185341 1.099329 0.000000 0.000000 0.000000 52.256196 -78.947466 49.834952 5.505826 10.392020 -4.553590 10.724893 18.170161 -6.449779 0.805946 -6.235511 1.935895 0.000000 0.000000 0.000000 12.347736 17.714763 -7.584524 -1.184987 4.173811 3.736048 1.994428 5.103155 -10.132269 0.000000 0.000000 0.000000 10.521007 17.911437 -7.384597 3.611048 -4.557744 -2.345227 0.479762 2.714320 -0.115596 -61.326056 -21.573861 -56.184733 51.505186 -71.714350 49.140858 0.000000 0.000000 0.000000 9.678692 18.274480 -6.521060 4.770973 8.098454 0.574167 -1.604292 6.736854 -4.092298 -42.418965 -10.707640 30.024009 -15.092841 43.027306 5.162499 0.000000 0.000000 0.000000 
3.472603 70.586395 -49.598530 0.000000 0.000000 0.000000 47.703749 -71.195126 43.970535 -66.391563 -10.243924 25.214162 79.382692 11.223392 0.140511 -13.691458 0.441462 -29.454334 -6.410991 -4.975610 7.099500 0.000000 0.000000 0.000000 43.051799 -71.244549 41.272825 -67.069999 0.684526 -11.598630 85.336056 10.413405 -5.112121 -34.905870 -1.643271 0.740689 2.860563 0.719383 -0.035868 0.000000 0.000000 0.000000 52.238465 -74.935597 49.618848 5.851474 10.157438 -4.202714 11.326445 17.455638 -6.455339 1.154476 -6.232916 1.689532 0.000000 0.000000 0.000000 12.107471 17.092584 -7.178858 -1.441886 6.262616 4.067143 0.364293 7.731828 -13.693063 0.000000 0.000000 0.000000 10.752534 17.244851 -7.475552 3.080389 -4.188641 -4.064800 -0.551148 2.169732 -0.493218 -47.524555 -12.057056 -52.963975 40.707692 -67.877238 38.115140 0.000000 0.000000 0.000000 10.010867 17.796142 -6.313106 4.295284 8.251400 3.195660 -0.817120 7.197295 -4.310994 -35.082044 -17.918192 32.416617 -14.645196 43.219794 7.638715 0.000000 0.000000 0.000000 
3.887885 70.755417 -50.179699 0.000000 0.000000 0.000000 49.080670 -68.079350 45.904216 -70.694896 -9.796994 24.258448 78.794476 9.829525 0.113087 -12.244449 -0.778254 -27.429445 -5.886371 -5.310907 6.745163 0.000000 0.000000 0.000000 43.734634 -68.504673 42.800154 -69.926439 1.770714 -13.345637 84.033279 10.383686 -4.925122 -33.557464 -1.400760 4.234680 1.679326 0.279022 -1.074167 0.000000 0.000000 0.000000 50.699282 -71.570383 48.217406 5.973044 9.861227 -3.601513 11.798449 16.740223 -6.321227 1.391196 -5.694919 1.581479 0.000000 0.000000 0.000000 11.761902 16.386174 -6.683196 -1.835662 8.020727 4.175418 -0.379130 9.930730 -16.731788 0.000000 0.000000 0.000000 10.921193 16.517423 -7.341361 2.746602 -3.547978 -4.972629 -0.524203 1.429137 -0.772686 -34.732670 -3.733472 -53.108488 28.614422 -64.211537 26.437441 0.000000 0.000000 0.000000 10.354399 17.221164 -6.024830 3.910580 8.741850 5.698986 -0.153182 7.460934 -4.150542 -25.848945 -24.771464 37.020995 -14.062145 43.130804 9.081783 0.000000 0.000000 0.000000 
4.052513 71.028244 -50.415188 0.000000 0.000000 0.000000 46.822600 -65.505346 44.721852 -73.643134 -8.978243 22.932640 77.652298 8.413899 0.189227 -10.045600 -1.238801 -26.040023 -4.790059 -5.333016 5.878659 0.000000 0.000000 0.000000 43.176044 -66.216136 43.050778 -70.842094 3.395582 -14.849067 82.297134 10.145251 -5.090629 -32.303892 -1.116203 7.435469 0.940393 -0.171234 -1.461430 0.000000 0.000000 0.000000 47.454758 -68.946621 45.541676 5.923002 9.452191 -3.002949 12.133138 15.986853 -6.147396 1.456053 -4.551198 1.487705 0.000000 0.000000 0.000000 11.448032 15.598928 -6.198088 -2.367196 9.398935 4.083050 -0.447673 11.514985 -19.022833 0.000000 0.000000 0.000000 11.083462 15.720473 -7.100659 2.522495 -2.985118 -5.167506 0.148787 0.888692 -0.929504 -23.793539 2.393639 -56.398569 17.974379 -60.310024 16.342822 0.000000 0.000000 0.000000 10.750560 16.546485 -5.710551 3.512308 9.562345 8.095688 0.334806 7.617150 -3.740332 -15.998887 -29.863575 42.990689 -13.370140 41.928810 9.539293 0.000000 0.000000 0.000000 
4.073675 71.502960 -50.484211 0.000000 0.000000 0.000000 42.362384 -63.384524 41.614505 -74.943568 -7.789380 21.100372 75.837195 7.281492 0.328389 -7.543583 -0.895437 -25.133542 -3.167551 -5.074966 4.555095 0.000000 0.000000 0.000000 41.146829 -64.222985 41.769974 -69.541981 4.897223 -16.011975 80.064652 9.293113 -5.084339 -31.890399 -1.147151 8.989639 1.951870 -0.555558 -1.124668 0.000000 0.000000 0.000000 43.105730 -66.865626 42.005161 5.785459 8.962264 -2.571481 12.357407 15.223020 -6.020631 1.435952 -3.506250 1.616823 0.000000 0.000000 0.000000 11.177875 14.797245 -5.790998 -2.942301 10.409427 3.782588 -0.056620 12.496436 -20.510466 0.000000 0.000000 0.000000 11.235473 14.887316 -6.832222 2.366592 -2.595315 -4.892854 0.529863 0.363505 -1.147339 -15.419642 6.238315 -61.419124 10.331159 -56.018787 9.018536 0.000000 0.000000 0.000000 11.113613 15.813785 -5.439906 3.022079 10.565641 10.314595 0.639851 7.235871 -3.168431 -7.689869 -32.633353 48.777933 -12.660113 39.487379 9.220434 0.000000 0.000000 0.000000 
3.799127 72.364838 -50.220112 0.000000 0.000000 0.000000 36.825979 -61.619057 37.489279 -74.238685 -6.265729 19.043174 73.252973 6.536614 0.540399 -5.241757 -0.105839 -24.229534 -1.502104 -4.718017 3.077553 0.000000 0.000000 0.000000 37.929277 -62.556958 39.210548 -66.355800 5.874024 -16.923045 77.227057 7.917126 -4.843381 -32.118237 -1.703856 9.141824 3.828796 -0.729633 -0.366900 0.000000 0.000000 0.000000 37.579472 -64.951725 37.439972 5.613326 8.421330 -2.409462 12.492715 14.451917 -5.952737 1.397028 -2.861384 1.770126 0.000000 0.000000 0.000000 10.983028 14.055187 -5.520748 -3.467860 11.012006 3.301623 0.458147 12.978112 -21.151703 0.000000 0.000000 0.000000 11.407848 14.068302 -6.585431 2.210641 -2.346333 -4.491148 0.495021 -0.009849 -1.487470 -9.954687 8.624506 -66.656656 6.229390 -51.874290 4.782107 0.000000 0.000000 0.000000 11.379021 15.100421 -5.206221 2.478582 11.417734 12.167370 0.826464 6.440844 -2.469282 -2.366966 -33.668096 53.082987 -12.138034 36.618932 8.586967 0.000000 0.000000 0.000000 
3.333788 73.805992 -49.643330 0.000000 0.000000 0.000000 31.259512 -60.389924 33.188333 -71.444414 -4.433638 17.049226 69.891140 6.075850 0.792705 -3.738664 0.795682 -22.871319 -0.296383 -4.446544 1.665995 0.000000 0.000000 0.000000 33.587571 -61.082805 35.456110 -61.753079 6.005797 -17.826608 73.752690 6.242235 -4.406523 -31.999614 -2.657058 8.830168 5.069178 -0.636945 0.283576 0.000000 0.000000 0.000000 31.899384 -63.069024 32.646006 5.476607 7.897287 -2.507247 12.545870 13.729374 -5.927200 1.316301 -2.668789 1.847965 0.000000 0.000000 0.000000 10.878710 13.417830 -5.363993 -3.850486 11.273111 2.690994 0.810125 13.252537 -21.042913 0.000000 0.000000 0.000000 11.554602 13.321918 -6.376439 2.066951 -2.001298 -4.312949 -0.197933 0.001802 -2.278697 -7.217018 10.261884 -70.849190 4.979061 -47.954488 2.991188 0.000000 0.000000 0.000000 11.494396 14.417269 -5.025381 1.933858 11.899363 13.464954 1.339768 5.413850 -1.671850 -0.027246 -33.654924 55.688356 -11.790631 34.298819 7.926497 0.000000 0.000000 0.000000 
2.692926 75.826477 -49.042332 0.000000 0.000000 0.000000 25.990284 -59.492881 28.794145 -67.082129 -2.462019 15.299876 65.999797 5.644040 1.050704 -3.359979 1.491272 -20.485291 0.255497 -4.414407 0.588330 0.000000 0.000000 0.000000 28.403611 -59.837252 30.797702 -56.351714 5.213369 -18.779581 69.632945 4.729695 -3.967847 -31.033180 -3.695030 9.081852 5.274092 -0.330530 0.509019 0.000000 0.000000 0.000000 26.508495 -61.216827 27.903696 5.310887 7.435382 -2.734859 12.506030 13.093463 -5.856830 1.228974 -2.729004 1.780855 0.000000 0.000000 0.000000 10.805671 12.892613 -5.268262 -4.079038 11.125896 2.053116 0.845068 13.513013 -20.317846 0.000000 0.000000 0.000000 11.616655 12.696366 -6.126953 1.950656 -1.335638 -4.489756 -0.799580 0.191771 -2.951370 -6.362225 11.210757 -73.208078 5.403813 -44.081744 2.657427 0.000000 0.000000 0.000000 11.432465 13.781075 -4.876742 1.460575 11.975527 14.167235 2.186370 4.219388 -0.824419 0.578302 -33.092851 57.287908 -11.423237 33.096453 7.363639 0.000000 0.000000 0.000000 
1.909006 78.306671 -48.385464 0.000000 0.000000 0.000000 20.848978 -58.677937 24.058016 -61.679292 -0.578090 14.047758 61.829024 4.935131 1.294037 -3.738877 1.747401 -17.373010 0.215908 -4.610624 -0.016182 0.000000 0.000000 0.000000 22.794460 -58.613992 25.526205 -50.262679 3.645321 -19.553957 64.540882 3.475415 -3.590793 -29.643233 -4.511595 9.962083 5.126809 0.066234 0.350519 0.000000 0.000000 0.000000 21.473276 -59.515755 23.192775 5.102979 7.039546 -2.957591 12.374003 12.528459 -5.658172 1.052539 -2.564270 1.568698 0.000000 0.000000 0.000000 10.764728 12.429119 -5.154468 -4.193058 10.640989 1.532126 0.484324 13.879822 -19.097912 0.000000 0.000000 0.000000 11.571461 12.173367 -5.777978 1.868302 -0.432188 -4.970115 -1.280114 0.440068 -3.235652 -6.503529 11.266035 -73.708157 6.507412 -40.523451 2.969492 0.000000 0.000000 0.000000 11.263111 13.184313 -4.702764 1.100861 11.750327 14.339613 3.092847 3.175045 -0.052727 0.905198 -32.391482 58.603105 -10.912525 33.017329 6.924799 0.000000 0.000000 0.000000 
